<?xml version="1.0" standalone="no"?>
<!DOCTYPE svg PUBLIC "-//W3C//DTD SVG 20010904//EN"
 "http://www.w3.org/TR/2001/REC-SVG-20010904/DTD/svg10.dtd">
<svg version="1.0" xmlns="http://www.w3.org/2000/svg"
 width="512.000000pt" height="512.000000pt" viewBox="0 0 512.000000 512.000000"
 preserveAspectRatio="xMidYMid meet">

<g transform="translate(0.000000,512.000000) scale(0.100000,-0.100000)"
fill="#000000" stroke="none">
<path d="M2092 4675 c-83 -26 -152 -90 -182 -170 -6 -16 -20 -102 -30 -191
-20 -176 -31 -212 -80 -268 -54 -61 -121 -90 -210 -91 -70 0 -86 4 -245 70
-152 62 -177 70 -235 69 -80 -1 -143 -27 -196 -81 -43 -43 -427 -696 -451
-765 -21 -61 -11 -148 25 -212 23 -41 50 -66 138 -128 240 -171 264 -199 264
-314 0 -122 -28 -164 -182 -270 -163 -111 -196 -140 -223 -195 -32 -63 -41
-124 -26 -186 14 -57 388 -703 446 -771 51 -59 105 -84 191 -90 69 -4 75 -3
247 67 212 85 248 89 345 40 148 -77 166 -110 192 -345 22 -196 39 -243 108
-306 77 -70 73 -69 587 -66 l460 3 46 27 c105 62 131 119 158 346 28 229 39
251 169 326 72 41 141 60 186 50 17 -3 101 -35 185 -71 176 -74 229 -84 314
-59 101 29 132 69 355 451 109 187 204 355 210 374 15 43 15 128 0 172 -23 69
-64 111 -218 222 -182 132 -205 163 -204 276 2 114 25 145 219 281 121 85 163
126 191 185 30 64 32 161 5 220 -10 22 -107 191 -215 375 -211 360 -238 396
-327 425 -91 31 -161 18 -344 -60 -203 -87 -236 -91 -337 -43 -80 38 -133 85
-154 134 -7 17 -23 108 -35 200 -24 194 -42 246 -104 303 -85 78 -67 76 -560
78 -350 2 -449 -1 -483 -12z m905 -175 c17 -10 37 -28 43 -39 6 -12 20 -92 31
-179 11 -86 25 -175 30 -197 48 -184 311 -344 506 -308 32 6 129 41 214 77
174 73 217 81 260 43 15 -12 115 -173 223 -359 205 -352 215 -376 181 -425 -8
-12 -78 -67 -154 -122 -76 -56 -153 -117 -170 -136 -130 -148 -127 -399 5
-542 21 -23 100 -86 174 -138 74 -53 140 -106 147 -118 29 -51 18 -74 -182
-417 -107 -184 -205 -345 -218 -357 -45 -45 -78 -41 -248 31 -169 71 -244 88
-329 76 -138 -21 -306 -124 -365 -225 -40 -68 -53 -120 -75 -293 -11 -89 -24
-171 -30 -182 -27 -50 -24 -50 -482 -50 l-428 0 -31 28 c-31 28 -32 30 -50
193 -20 183 -29 222 -67 292 -32 60 -89 113 -178 164 -123 72 -232 90 -345 57
-30 -9 -113 -40 -186 -70 -152 -62 -189 -67 -232 -27 -16 16 -118 179 -226
363 -180 307 -196 338 -192 373 3 21 11 44 17 52 7 9 75 58 151 111 157 109
189 141 232 231 54 117 47 287 -18 398 -35 59 -87 105 -235 207 -152 104 -172
136 -133 211 54 106 387 665 404 679 45 38 75 34 262 -42 145 -59 190 -73 249
-77 202 -15 394 108 459 292 10 30 26 121 34 202 18 171 27 198 69 224 29 18
57 19 441 19 388 0 412 -1 442 -20z"/>
<path d="M2376 3414 c-409 -88 -693 -438 -689 -849 2 -236 96 -443 276 -611
429 -399 1144 -265 1392 261 65 136 80 206 79 365 0 98 -5 153 -18 200 -91
332 -347 570 -684 636 -93 18 -266 17 -356 -2z m369 -179 c99 -25 218 -91 296
-163 105 -97 170 -202 205 -332 22 -85 23 -234 1 -320 -50 -194 -182 -357
-357 -443 -127 -63 -200 -80 -335 -79 -128 0 -206 17 -311 69 -182 88 -323
262 -368 453 -20 83 -20 239 -1 315 8 33 34 98 57 145 33 69 57 101 127 170
110 109 219 167 372 200 60 13 241 4 314 -15z"/>
</g>
</svg>
